<?xml version="1.0" encoding="UTF-8" standalone="no"?>
<svg
   xmlns:dc="http://purl.org/dc/elements/1.1/"
   xmlns:cc="http://creativecommons.org/ns#"
   xmlns:rdf="http://www.w3.org/1999/02/22-rdf-syntax-ns#"
   xmlns:svg="http://www.w3.org/2000/svg"
   xmlns="http://www.w3.org/2000/svg"
   xmlns:sodipodi="http://sodipodi.sourceforge.net/DTD/sodipodi-0.dtd"
   xmlns:inkscape="http://www.inkscape.org/namespaces/inkscape"
   height="254.23172"
   width="1470.9558"
   fill="#000000"
   version="1.1"
   x="0px"
   y="0px"
   viewBox="0 0 490.31861 84.743907"
   enable-background="new 0 0 100 100"
   xml:space="preserve"
   id="svg1482"
   sodipodi:docname="logo.svg"
   inkscape:version="1.0.1 (3bc2e813f5, 2020-09-07)"
   inkscape:export-filename="/home/oliver/Devel/astrocamweb/static/img/icons/1024x1024.png"
   inkscape:export-xdpi="327.67999"
   inkscape:export-ydpi="327.67999"><metadata
     id="metadata1488"><rdf:RDF><cc:Work
         rdf:about=""><dc:format>image/svg+xml</dc:format><dc:type
           rdf:resource="http://purl.org/dc/dcmitype/StillImage" /><dc:title></dc:title></cc:Work></rdf:RDF></metadata><defs
     id="defs1486" /><sodipodi:namedview
     pagecolor="#ffffff"
     bordercolor="#666666"
     borderopacity="1"
     objecttolerance="10"
     gridtolerance="10"
     guidetolerance="10"
     inkscape:pageopacity="0"
     inkscape:pageshadow="2"
     inkscape:window-width="3840"
     inkscape:window-height="2096"
     id="namedview1484"
     showgrid="false"
     inkscape:zoom="0.0378125"
     inkscape:cx="-4024.6903"
     inkscape:cy="-2988.161"
     inkscape:window-x="0"
     inkscape:window-y="27"
     inkscape:window-maximized="1"
     inkscape:current-layer="svg1482"
     fit-margin-top="10"
     fit-margin-left="10"
     fit-margin-right="10"
     fit-margin-bottom="10"
     inkscape:document-rotation="0" /><path
     fill="#000000"
     d="m 93.139878,43.604333 c 0.082,-1.633 0.5,-17.569 -13.731,-23.73 -5.101,-2.207 -6.123,-4.897 -7.206,-7.747 -1.95,-5.1499996 -4.326,-8.7939996 -17.163,-8.7939996 -12.332,0 -14.627,3.462 -16.348,7.9879996 -0.784,2.06 -1.49,3.894 -4.702,5.222 l -0.67,-2.911 c -0.119,-0.511 -0.635,-0.829 -1.137,-0.726 l -14.605,3.105 c -0.254,0.055 -0.476,0.209 -0.615,0.429 -0.139,0.218 -0.182,0.484 -0.122,0.736 l 0.786,3.281 c -4,0.888 -5.683,1.24 -6.854,1.465 -1.8889997,0.366 -6.3149997,1.225 -6.5739997,5.51 -0.081,1.207 -1.947,29.64 0.064,37.011 1.895,6.956 3.069,10.3 9.0009997,10.3 h 70.155 c 8.751,0 9.477,-9.818 9.713,-13.043 0.425,-5.685 0.049,-16.9 0.008,-18.096 z"
     id="path1474"
     sodipodi:nodetypes="cccscccccccccccsscc"
     style="fill:#000080" /><path
     sodipodi:nodetypes="ssssssssscsssssssssscscsssssssssssssssssssssssscsssssssscssssccsssssssssssssssssssssssssssssssss"
     id="path1138"
     d="m 20.954556,66.215978 c -0.745817,-0.140618 -0.565971,-0.188519 3.549296,-0.945282 7.602677,-1.398049 10.437909,-2.178271 15.155204,-4.170567 4.950041,-2.090597 10.783601,-5.41102 13.547651,-7.711249 2.974009,-2.474976 4.754295,-4.53406 5.566845,-6.438667 0.52795,-1.237496 0.570159,-2.003626 0.140452,-2.549904 -0.522437,-0.664154 -1.192283,-0.78274 -3.811183,-0.674657 -2.217716,0.09144 -2.359073,0.08044 -2.359073,-0.184768 0,-0.427253 0.424152,-0.715396 1.697489,-1.153163 1.869162,-0.642609 2.980373,-0.8743 4.188818,-0.873381 1.439656,0.0011 2.163034,0.203551 2.834884,0.793459 2.573478,2.259533 -1.095126,7.841472 -8.695135,13.230001 -7.617355,5.40083 -17.056642,9.333598 -25.4111,10.587245 -1.548839,0.232416 -5.366166,0.286625 -6.404148,0.09088 z m 28.633432,-4.467494 c 0.08058,-0.07404 1.674333,-1.196427 3.541555,-2.493997 5.865262,-4.075915 8.586326,-6.28492 10.733378,-8.713491 2.683729,-3.035669 4.159518,-5.766702 4.403626,-8.149113 0.08364,-0.81581 0.04411,-1.108791 -0.234403,-1.739866 -0.740201,-1.677186 -2.030696,-2.455825 -4.592628,-2.771032 -2.295942,-0.282479 -4.319117,-5.58e-4 -6.915017,0.963179 -1.346768,0.500056 -3.645362,1.637718 -4.514297,2.234263 -0.931949,0.63981 -1.885457,1.044993 -2.468517,1.048934 -0.763879,0.0056 -0.620494,-0.309321 0.540117,-1.184687 4.031437,-3.040603 7.607256,-4.444084 12.705446,-4.986782 3.685323,-0.392298 6.786291,0.697824 7.922275,2.785021 0.580657,1.066862 0.726562,3.01969 0.328058,4.390529 -0.386704,1.330174 -1.461901,3.376891 -2.556779,4.866958 -1.082508,1.47323 -4.610368,5.054949 -6.246594,6.341941 -3.201729,2.518363 -7.010016,4.892936 -10.528639,6.564874 -2.012213,0.956142 -2.414723,1.116424 -2.117581,0.843269 z M 21.695032,60.790705 C 18.55657,60.330496 16.204727,58.937777 15.39757,57.061493 15.106997,56.386036 15.066371,56.06885 15.126827,54.947086 c 0.06277,-1.16413 0.491794,-2.772076 0.68748,-2.576389 0.03746,0.0373 0.167215,0.493754 0.288656,1.014313 0.719057,3.082316 2.883765,4.580637 7.71579,5.340556 4.780681,0.751834 11.794137,-0.510299 17.373558,-3.126503 1.569364,-0.735899 4.922133,-2.73439 6.347437,-3.783546 1.400982,-1.031263 1.959243,-1.751935 2.873056,-3.708898 0.867889,-1.858609 1.310137,-2.270695 2.437939,-2.271711 0.494158,-3.62e-4 0.703878,0.08058 0.887315,0.342402 0.59588,0.850744 -0.06165,2.179848 -2.045738,4.134941 -2.093932,2.063403 -4.047457,3.47818 -7.281655,5.27345 -4.291324,2.382075 -10.726929,4.438241 -16.11595,5.149016 -1.808267,0.238501 -5.161027,0.266933 -6.599683,0.05609 z m 8.332302,-6.30979 c -1.951327,-0.199167 -4.383088,-1.783497 -5.074571,-3.306158 -0.427832,-0.942056 -0.393217,-2.804961 0.07682,-4.136709 0.815018,-2.309126 2.519955,-4.747702 5.167,-7.39043 2.10885,-2.105462 4.000584,-3.63149 6.742125,-5.438787 1.921415,-1.266657 6.248796,-3.631003 5.774468,-3.154978 -0.127344,0.127759 -1.759202,1.446814 -3.626437,2.931233 -6.657789,5.292807 -8.244709,6.974166 -10.026633,10.623358 -1.043646,2.137272 -1.316787,3.373935 -1.029136,4.659338 0.487019,2.176227 2.324543,3.22149 5.654714,3.216647 2.971843,-0.0043 5.309703,-0.63401 8.372881,-2.255263 2.210619,-1.17 3.895262,-1.572011 3.895262,-0.929509 0,0.216313 -1.982124,1.660387 -3.240651,2.360989 -2.540844,1.414426 -6.19169,2.524947 -9.256206,2.81555 -1.741676,0.165174 -1.856204,0.165325 -3.429636,0.0043 z m 6.387437,-5.614403 c -0.955289,-0.25562 -1.831664,-1.043928 -2.046657,-1.84102 -0.42186,-1.563952 0.333357,-3.475646 2.299907,-5.821814 4.775366,-5.697185 14.007023,-11.350101 23.637242,-14.474015 5.085383,-1.649642 8.363297,-2.245647 12.42247,-2.258711 2.929025,-0.0097 3.81513,0.09352 3.299121,0.383265 -0.137641,0.07724 -1.73476,0.354677 -3.549283,0.616486 -8.361914,1.20648 -13.351552,2.734849 -20.351073,6.233624 -6.523803,3.26097 -11.203668,6.810181 -13.340964,10.117788 -0.970949,1.50258 -1.164803,1.987719 -1.164803,2.915202 0,1.487867 1.126224,2.217933 3.471485,2.250446 1.20506,0.0167 1.395263,0.05594 1.441694,0.296911 0.09144,0.475063 -0.733714,1.156655 -1.798503,1.485543 -1.118741,0.345537 -3.214587,0.392254 -4.320636,0.0963 z m 7.37864,-3.69431 c -0.803773,-0.405535 -0.924012,-1.929299 -0.263231,-3.335082 0.41098,-0.874306 1.924246,-2.485759 3.382763,-3.602237 3.899926,-2.985356 10.046691,-5.852164 15.255591,-7.115091 3.874707,-0.939467 5.123036,-1.096954 8.630243,-1.088895 2.902573,0.007 3.285395,0.04011 4.641525,0.405378 2.670329,0.719267 4.395568,1.867252 5.162752,3.435311 0.497358,1.016557 0.644571,2.366952 0.381092,3.495646 -0.215156,0.921704 -1.055697,2.820841 -1.459447,3.297504 -0.256859,0.30324 -0.259644,0.301894 -0.159608,-0.07724 0.05609,-0.212194 0.139035,-0.952585 0.184419,-1.645312 0.163388,-2.491786 -0.829309,-4.110866 -3.249729,-5.300201 -2.051973,-1.008281 -3.29526,-1.265111 -6.528441,-1.348542 -4.182815,-0.107996 -7.938699,0.43687 -12.124509,1.758769 -1.909002,0.602859 -5.527421,2.364535 -7.429078,3.616944 -2.493899,1.642447 -4.572549,4.21022 -4.572549,5.648489 0,0.780276 -0.379801,1.539796 -0.906094,1.811929 -0.554709,0.286862 -0.469072,0.283008 -0.945699,0.04259 z"
     style="fill:#ffffff;stroke-width:0.154316" /><path
     d="m 120.34959,38.978428 h 18.74383 V 63.47467 q -4.55669,1.486579 -8.59631,2.068284 -4.0073,0.614022 -8.2085,0.614022 -10.69691,0 -16.35238,-6.269486 -5.62314,-6.301804 -5.62314,-18.065171 0,-11.440197 6.52802,-17.838952 6.56034,-6.398754 18.16212,-6.398754 7.27131,0 14.02555,2.908525 l -3.32864,8.014601 q -5.17071,-2.585355 -10.76155,-2.585355 -6.4957,0 -10.40605,4.362787 -3.91035,4.362787 -3.91035,11.73105 0,7.691432 3.13474,11.763367 3.16706,4.039617 9.17801,4.039617 3.13475,0 6.36644,-0.646338 v -9.856668 h -8.95179 z"
     style="font-style:normal;font-variant:normal;font-weight:bold;font-stretch:normal;font-size:66.1851px;line-height:1.25;font-family:'Open Sans';-inkscape-font-specification:'Open Sans Bold';fill:#000080;fill-opacity:1;stroke:none;stroke-width:3.19602"
     id="path2542" /><path
     d="m 172.50913,65.510637 -1.9067,-4.912175 h -0.25853 q -2.48841,3.134744 -5.1384,4.362787 -2.61767,1.195727 -6.85119,1.195727 -5.20302,0 -8.2085,-2.973158 -2.97316,-2.973159 -2.97316,-8.467039 0,-5.752416 4.0073,-8.467039 4.03962,-2.74694 12.15117,-3.037792 l 6.26949,-0.193902 v -1.58353 q 0,-5.49388 -5.62315,-5.49388 -4.33047,0 -10.17984,2.617672 l -3.26401,-6.65729 q 6.23717,-3.264011 13.83165,-3.264011 7.27132,0 11.14935,3.16706 3.87803,3.167061 3.87803,9.630449 v 24.076121 z m -2.90852,-16.740175 -3.8134,0.129267 q -4.29815,0.129268 -6.39875,1.551214 -2.10061,1.421945 -2.10061,4.33047 0,4.168885 4.78291,4.168885 3.4256,0 5.46156,-1.971333 2.06829,-1.971334 2.06829,-5.235345 z"
     style="font-style:normal;font-variant:normal;font-weight:bold;font-stretch:normal;font-size:66.1851px;line-height:1.25;font-family:'Open Sans';-inkscape-font-specification:'Open Sans Bold';fill:#000080;fill-opacity:1;stroke:none;stroke-width:3.19602"
     id="path2544" /><path
     d="m 199.39683,65.510637 h -9.85667 V 15.225476 h 9.85667 z"
     style="font-style:normal;font-variant:normal;font-weight:bold;font-stretch:normal;font-size:66.1851px;line-height:1.25;font-family:'Open Sans';-inkscape-font-specification:'Open Sans Bold';fill:#000080;fill-opacity:1;stroke:none;stroke-width:3.19602"
     id="path2546" /><path
     d="m 232.68327,65.510637 -1.90669,-4.912175 h -0.25854 q -2.4884,3.134744 -5.13839,4.362787 -2.61768,1.195727 -6.8512,1.195727 -5.20302,0 -8.2085,-2.973158 -2.97316,-2.973159 -2.97316,-8.467039 0,-5.752416 4.0073,-8.467039 4.03962,-2.74694 12.15117,-3.037792 l 6.26949,-0.193902 v -1.58353 q 0,-5.49388 -5.62315,-5.49388 -4.33047,0 -10.17983,2.617672 l -3.26402,-6.65729 q 6.23717,-3.264011 13.83166,-3.264011 7.27131,0 11.14934,3.16706 3.87803,3.167061 3.87803,9.630449 v 24.076121 z m -2.90852,-16.740175 -3.8134,0.129267 q -4.29815,0.129268 -6.39875,1.551214 -2.1006,1.421945 -2.1006,4.33047 0,4.168885 4.7829,4.168885 3.4256,0 5.46157,-1.971333 2.06828,-1.971334 2.06828,-5.235345 z"
     style="font-style:normal;font-variant:normal;font-weight:bold;font-stretch:normal;font-size:66.1851px;line-height:1.25;font-family:'Open Sans';-inkscape-font-specification:'Open Sans Bold';fill:#000080;fill-opacity:1;stroke:none;stroke-width:3.19602"
     id="path2548" /><path
     d="m 257.11488,47.057664 -11.6341,-17.677367 h 11.18166 l 7.01278,11.504831 7.07741,-11.504831 h 11.18166 l -11.76337,17.677367 12.31276,18.452973 H 271.2697 l -7.59448,-12.377388 -7.6268,12.377388 h -11.18166 z"
     style="font-style:normal;font-variant:normal;font-weight:bold;font-stretch:normal;font-size:66.1851px;line-height:1.25;font-family:'Open Sans';-inkscape-font-specification:'Open Sans Bold';fill:#000080;fill-opacity:1;stroke:none;stroke-width:3.19602"
     id="path2550" /><path
     d="m 282.80685,29.380297 h 10.79386 l 6.81887,20.327356 q 0.87256,2.649989 1.19573,6.269487 h 0.1939 q 0.35548,-3.328645 1.38963,-6.269487 l 6.6896,-20.327356 h 10.56764 L 305.17017,70.13196 q -2.1006,5.655465 -6.01095,8.467039 -3.87803,2.811574 -9.08106,2.811574 -2.55304,0 -5.00913,-0.549388 v -7.8207 q 1.77743,0.42012 3.87804,0.42012 2.61767,0 4.55668,-1.615847 1.97134,-1.58353 3.07011,-4.815224 l 0.58171,-1.777432 z"
     style="font-style:normal;font-variant:normal;font-weight:bold;font-stretch:normal;font-size:66.1851px;line-height:1.25;font-family:'Open Sans';-inkscape-font-specification:'Open Sans Bold';fill:#000080;fill-opacity:1;stroke:none;stroke-width:3.19602"
     id="path2552" /><path
     d="m 365.60286,41.434516 q 0,11.666416 -6.65729,17.871269 -6.62497,6.204852 -19.16395,6.204852 H 326.40241 V 18.263269 h 14.83348 q 11.56946,0 17.96822,6.107902 6.39875,6.107902 6.39875,17.063345 z m -10.40605,0.258535 q 0,-15.221279 -13.44385,-15.221279 h -5.3323 V 57.2375 h 4.29816 q 14.47799,0 14.47799,-15.544449 z"
     style="font-style:normal;font-variant:normal;font-weight:bold;font-stretch:normal;font-size:66.1851px;line-height:1.25;font-family:'Open Sans';-inkscape-font-specification:'Open Sans Bold';fill:#000080;fill-opacity:1;stroke:none;stroke-width:3.19602"
     id="path2554" /><path
     d="m 403.28441,52.389959 q 0,6.398755 -4.62132,10.082886 -4.58901,3.684131 -12.79751,3.684131 -7.56217,0 -13.37922,-2.843891 v -9.307279 q 4.78291,2.132918 8.07924,3.005476 3.32864,0.872557 6.07558,0.872557 3.29633,0 5.04145,-1.260361 1.77743,-1.26036 1.77743,-3.748765 0,-1.389628 -0.77561,-2.456087 -0.77561,-1.098776 -2.2945,-2.100602 -1.48658,-1.001825 -6.1079,-3.199377 -4.33047,-2.035967 -6.49571,-3.91035 -2.16523,-1.874382 -3.45791,-4.362787 -1.29268,-2.488404 -1.29268,-5.817049 0,-6.269487 4.23352,-9.856668 4.26584,-3.58718 11.76337,-3.58718 3.68413,0 7.01277,0.872557 3.36097,0.872558 7.01278,2.456088 l -3.23169,7.788383 q -3.78109,-1.551213 -6.26949,-2.165235 -2.45609,-0.614022 -4.84754,-0.614022 -2.84389,0 -4.36279,1.324994 -1.5189,1.324995 -1.5189,3.457913 0,1.324995 0.61403,2.32682 0.61402,0.969508 1.93901,1.9067 1.35731,0.904874 6.36644,3.296328 6.62497,3.16706 9.08106,6.366437 2.45609,3.16706 2.45609,7.788383 z"
     style="font-style:normal;font-variant:normal;font-weight:bold;font-stretch:normal;font-size:66.1851px;line-height:1.25;font-family:'Open Sans';-inkscape-font-specification:'Open Sans Bold';fill:#000080;fill-opacity:1;stroke:none;stroke-width:3.19602"
     id="path2556" /><path
     d="M 411.84841,65.510637 V 18.263269 h 10.01825 V 57.2375 h 19.16395 v 8.273137 z"
     style="font-style:normal;font-variant:normal;font-weight:bold;font-stretch:normal;font-size:66.1851px;line-height:1.25;font-family:'Open Sans';-inkscape-font-specification:'Open Sans Bold';fill:#000080;fill-opacity:1;stroke:none;stroke-width:3.19602"
     id="path2558" /><path
     d="m 459.25735,39.236964 h 3.23169 q 4.75059,0 7.01278,-1.58353 2.26218,-1.58353 2.26218,-4.976809 0,-3.360962 -2.32682,-4.782908 -2.2945,-1.421945 -7.14204,-1.421945 h -3.03779 z m 0,8.143869 V 65.510637 H 449.2391 V 18.263269 h 13.76701 q 9.63045,0 14.25177,3.522546 4.62133,3.49023 4.62133,10.632274 0,4.168886 -2.29451,7.432897 -2.2945,3.231694 -6.4957,5.07376 10.66459,15.932252 13.89628,20.585891 H 475.86826 L 464.58964,47.380833 Z"
     style="font-style:normal;font-variant:normal;font-weight:bold;font-stretch:normal;font-size:66.1851px;line-height:1.25;font-family:'Open Sans';-inkscape-font-specification:'Open Sans Bold';fill:#000080;fill-opacity:1;stroke:none;stroke-width:3.19602"
     id="path2560" /></svg>
