<?xml version="1.0" encoding="UTF-8" standalone="no"?>
<svg
   xmlns:dc="http://purl.org/dc/elements/1.1/"
   xmlns:cc="http://creativecommons.org/ns#"
   xmlns:rdf="http://www.w3.org/1999/02/22-rdf-syntax-ns#"
   xmlns:svg="http://www.w3.org/2000/svg"
   xmlns="http://www.w3.org/2000/svg"
   xmlns:sodipodi="http://sodipodi.sourceforge.net/DTD/sodipodi-0.dtd"
   xmlns:inkscape="http://www.inkscape.org/namespaces/inkscape"
   height="254.23172"
   width="1470.9558"
   fill="#000000"
   version="1.1"
   x="0px"
   y="0px"
   viewBox="0 0 490.31861 84.743907"
   enable-background="new 0 0 100 100"
   xml:space="preserve"
   id="svg1482"
   sodipodi:docname="logo-white.svg"
   inkscape:version="1.0.1 (3bc2e813f5, 2020-09-07)"
   inkscape:export-filename="/home/oliver/Devel/astrocamweb/static/img/icons/1024x1024.png"
   inkscape:export-xdpi="327.67999"
   inkscape:export-ydpi="327.67999"><metadata
     id="metadata1488"><rdf:RDF><cc:Work
         rdf:about=""><dc:format>image/svg+xml</dc:format><dc:type
           rdf:resource="http://purl.org/dc/dcmitype/StillImage" /><dc:title></dc:title></cc:Work></rdf:RDF></metadata><defs
     id="defs1486" /><sodipodi:namedview
     pagecolor="#ffffff"
     bordercolor="#666666"
     borderopacity="1"
     objecttolerance="10"
     gridtolerance="10"
     guidetolerance="10"
     inkscape:pageopacity="0"
     inkscape:pageshadow="2"
     inkscape:window-width="3840"
     inkscape:window-height="2096"
     id="namedview1484"
     showgrid="false"
     inkscape:zoom="0.026737475"
     inkscape:cx="-11833.915"
     inkscape:cy="283.04804"
     inkscape:window-x="0"
     inkscape:window-y="27"
     inkscape:window-maximized="1"
     inkscape:current-layer="svg1482"
     fit-margin-top="10"
     fit-margin-left="10"
     fit-margin-right="10"
     fit-margin-bottom="10"
     inkscape:document-rotation="0" /><path
     id="path1474"
     style="fill:#ffffff;stroke-width:3"
     d="M 165.11914 10 C 128.12314 10 121.23917 20.386845 116.07617 33.964844 C 113.72417 40.144844 111.60475 45.646859 101.96875 49.630859 L 99.958984 40.896484 C 99.601984 39.363484 98.054828 38.40975 96.548828 38.71875 L 52.734375 48.033203 C 51.972375 48.198203 51.305672 48.660313 50.888672 49.320312 C 50.471672 49.974312 50.343438 50.773297 50.523438 51.529297 L 52.880859 61.371094 C 40.880859 64.035094 35.831359 65.092578 32.318359 65.767578 C 26.65136 66.865578 13.372703 69.441875 12.595703 82.296875 C 12.352703 85.917875 6.7560626 171.21708 12.789062 193.33008 C 18.474062 214.19808 21.995017 224.23047 39.791016 224.23047 L 250.25586 224.23047 C 276.50886 224.23047 278.68848 194.77656 279.39648 185.10156 C 280.67148 168.04656 279.54292 134.4005 279.41992 130.8125 C 279.66592 125.9135 280.91956 78.106047 238.22656 59.623047 C 222.92356 53.002047 219.85837 44.932812 216.60938 36.382812 C 210.75938 20.932814 203.63014 10 165.11914 10 z M 218.18359 73.412109 C 226.97067 73.383009 229.62811 73.693265 228.08008 74.5625 C 227.66716 74.79422 222.87716 75.626682 217.43359 76.412109 C 192.34785 80.031549 177.37747 84.616956 156.37891 95.113281 C 136.8075 104.89619 122.76931 115.54398 116.35742 125.4668 C 113.44457 129.97454 112.86133 131.43044 112.86133 134.21289 C 112.86133 138.67649 116.24156 140.86535 123.27734 140.96289 C 126.89252 141.01299 127.46227 141.1306 127.60156 141.85352 C 127.87588 143.2787 125.4014 145.32388 122.20703 146.31055 C 118.85081 147.34716 112.56229 147.48747 109.24414 146.59961 C 106.37827 145.83275 103.74849 143.46745 103.10352 141.07617 C 101.83794 136.38432 104.10426 130.64983 110.00391 123.61133 C 124.33 106.51977 152.02536 89.561195 180.91602 80.189453 C 196.17216 75.240527 206.00607 73.451301 218.18359 73.412109 z M 212.39648 90.091797 C 221.1042 90.112797 222.25192 90.21279 226.32031 91.308594 C 234.3313 93.466395 239.50704 96.911057 241.80859 101.61523 C 243.30067 104.66491 243.74356 108.71548 242.95312 112.10156 C 242.30766 114.86667 239.78547 120.56415 238.57422 121.99414 C 237.80364 122.90386 237.7956 122.89912 238.0957 121.76172 C 238.26397 121.12514 238.51229 118.90435 238.64844 116.82617 C 239.1386 109.35081 236.1597 104.49379 228.89844 100.92578 C 222.74252 97.900938 219.014 97.131152 209.31445 96.880859 C 196.76601 96.556871 185.49884 98.190553 172.94141 102.15625 C 167.2144 103.96483 156.35731 109.25059 150.65234 113.00781 C 143.17065 117.93515 136.93555 125.63832 136.93555 129.95312 C 136.93555 132.29395 135.79568 134.57227 134.2168 135.38867 C 132.55267 136.24926 132.81074 136.23688 131.38086 135.51562 L 131.38086 135.51758 C 128.96954 134.30097 128.6075 129.72907 130.58984 125.51172 C 131.82278 122.8888 136.36273 118.05451 140.73828 114.70508 C 152.43806 105.74901 170.87916 97.148156 186.50586 93.359375 C 198.12998 90.540974 201.87486 90.06762 212.39648 90.091797 z M 128.24219 92.990234 C 128.26051 93.015802 128.22761 93.072855 128.13867 93.162109 C 127.75664 93.545386 122.86147 97.501821 117.25977 101.95508 C 97.286399 117.8335 92.525459 122.8786 87.179688 133.82617 C 84.04875 140.23799 83.230797 143.94653 84.09375 147.80273 C 85.554807 154.33142 91.066128 157.46765 101.05664 157.45312 C 109.97217 157.44023 116.98625 155.55126 126.17578 150.6875 C 132.80764 147.1775 137.86133 145.97093 137.86133 147.89844 C 137.86133 148.54738 131.91425 152.88062 128.13867 154.98242 C 120.51614 159.2257 109.56464 162.55593 100.37109 163.42773 C 95.146066 163.92326 94.802327 163.92448 90.082031 163.44141 L 90.082031 163.44336 C 84.22805 162.84586 76.931871 158.09142 74.857422 153.52344 C 73.573926 150.69727 73.67778 145.10853 75.087891 141.11328 C 77.532945 134.1859 82.648709 126.87154 90.589844 118.94336 C 96.916394 112.62697 102.59178 108.04884 110.81641 102.62695 C 116.22039 99.06448 127.96732 92.606717 128.24219 92.990234 z M 192.41797 107.63281 C 201.65183 107.55596 209.14695 110.74376 212.12891 116.22266 C 213.87088 119.42324 214.30879 125.28201 213.11328 129.39453 C 211.95317 133.38505 208.72799 139.52589 205.44336 143.99609 C 202.19584 148.41578 191.6118 159.16051 186.70312 163.02148 C 177.09794 170.57657 165.67306 177.69903 155.11719 182.71484 C 149.08055 185.58327 147.87225 186.06556 148.76367 185.24609 C 149.00541 185.02397 153.78701 181.65638 159.38867 177.76367 C 176.98446 165.53593 185.14673 158.90876 191.58789 151.62305 C 199.63908 142.51604 204.0665 134.32301 204.79883 127.17578 C 205.04975 124.72835 204.93124 123.8483 204.0957 121.95508 C 201.8751 116.92352 198.00416 114.5882 190.31836 113.64258 C 183.43053 112.79514 177.36192 113.64199 169.57422 116.5332 C 165.53391 118.03337 158.63805 121.44474 156.03125 123.23438 C 153.2354 125.1538 150.37418 126.37099 148.625 126.38281 C 146.33336 126.39961 146.76426 125.45422 150.24609 122.82812 C 162.3404 113.70632 173.06676 109.49528 188.36133 107.86719 C 189.74332 107.72008 191.09885 107.64379 192.41797 107.63281 z M 175.89062 124.54297 C 180.20959 124.54627 182.37898 125.1541 184.39453 126.92383 C 192.11497 133.70243 181.10862 150.44769 158.30859 166.61328 C 135.45653 182.81577 107.13955 194.61406 82.076172 198.375 C 77.429655 199.07225 65.977227 199.23567 62.863281 198.64844 C 60.62583 198.22658 61.165918 198.08279 73.511719 195.8125 C 96.31975 191.61835 104.82468 189.27767 118.97656 183.30078 C 133.82669 177.02899 151.32894 167.0667 159.62109 160.16602 C 168.54312 152.74109 173.88266 146.56538 176.32031 140.85156 C 177.90416 137.13907 178.03131 134.84001 176.74219 133.20117 C 175.17488 131.20871 173.16529 130.85349 165.30859 131.17773 C 158.65545 131.45205 158.23047 131.41867 158.23047 130.62305 C 158.23047 129.34129 159.50421 128.47736 163.32422 127.16406 C 168.9317 125.23624 172.26529 124.54021 175.89062 124.54297 z M 158.55273 137.50391 C 160.03521 137.50282 160.66453 137.74578 161.21484 138.53125 C 163.00248 141.08348 161.02844 145.07222 155.07617 150.9375 C 148.79438 157.12771 142.93502 161.372 133.23242 166.75781 C 120.35845 173.90404 101.05183 180.07275 84.884766 182.20508 C 79.459965 182.92058 69.401905 183.00558 65.085938 182.37305 C 55.670552 180.99242 48.61483 176.81245 46.193359 171.18359 C 45.32164 169.15722 45.199491 168.20709 45.380859 164.8418 C 45.569169 161.34941 46.856301 156.52427 47.443359 157.11133 C 47.555739 157.22323 47.944271 158.59262 48.308594 160.1543 C 50.465765 169.40124 56.960956 173.89602 71.457031 176.17578 C 85.799074 178.43128 106.83791 174.64549 123.57617 166.79688 C 128.28426 164.58918 138.34323 158.59473 142.61914 155.44727 C 146.82209 152.35348 148.49684 150.1912 151.23828 144.32031 C 153.84195 138.74449 155.16933 137.50695 158.55273 137.50391 z "
     transform="scale(0.33333334)" /><path
     d="m 120.34959,38.978428 h 18.74383 V 63.47467 q -4.55669,1.486579 -8.59631,2.068284 -4.0073,0.614022 -8.2085,0.614022 -10.69691,0 -16.35238,-6.269486 -5.62314,-6.301804 -5.62314,-18.065171 0,-11.440197 6.52802,-17.838952 6.56034,-6.398754 18.16212,-6.398754 7.27131,0 14.02555,2.908525 l -3.32864,8.014601 q -5.17071,-2.585355 -10.76155,-2.585355 -6.4957,0 -10.40605,4.362787 -3.91035,4.362787 -3.91035,11.73105 0,7.691432 3.13474,11.763367 3.16706,4.039617 9.17801,4.039617 3.13475,0 6.36644,-0.646338 v -9.856668 h -8.95179 z"
     style="font-style:normal;font-variant:normal;font-weight:bold;font-stretch:normal;font-size:66.1851px;line-height:1.25;font-family:'Open Sans';-inkscape-font-specification:'Open Sans Bold';fill:#ffffff;fill-opacity:1;stroke:none;stroke-width:3.19602"
     id="path2542" /><path
     d="m 172.50913,65.510637 -1.9067,-4.912175 h -0.25853 q -2.48841,3.134744 -5.1384,4.362787 -2.61767,1.195727 -6.85119,1.195727 -5.20302,0 -8.2085,-2.973158 -2.97316,-2.973159 -2.97316,-8.467039 0,-5.752416 4.0073,-8.467039 4.03962,-2.74694 12.15117,-3.037792 l 6.26949,-0.193902 v -1.58353 q 0,-5.49388 -5.62315,-5.49388 -4.33047,0 -10.17984,2.617672 l -3.26401,-6.65729 q 6.23717,-3.264011 13.83165,-3.264011 7.27132,0 11.14935,3.16706 3.87803,3.167061 3.87803,9.630449 v 24.076121 z m -2.90852,-16.740175 -3.8134,0.129267 q -4.29815,0.129268 -6.39875,1.551214 -2.10061,1.421945 -2.10061,4.33047 0,4.168885 4.78291,4.168885 3.4256,0 5.46156,-1.971333 2.06829,-1.971334 2.06829,-5.235345 z"
     style="font-style:normal;font-variant:normal;font-weight:bold;font-stretch:normal;font-size:66.1851px;line-height:1.25;font-family:'Open Sans';-inkscape-font-specification:'Open Sans Bold';fill:#ffffff;fill-opacity:1;stroke:none;stroke-width:3.19602"
     id="path2544" /><path
     d="m 199.39683,65.510637 h -9.85667 V 15.225476 h 9.85667 z"
     style="font-style:normal;font-variant:normal;font-weight:bold;font-stretch:normal;font-size:66.1851px;line-height:1.25;font-family:'Open Sans';-inkscape-font-specification:'Open Sans Bold';fill:#ffffff;fill-opacity:1;stroke:none;stroke-width:3.19602"
     id="path2546" /><path
     d="m 232.68327,65.510637 -1.90669,-4.912175 h -0.25854 q -2.4884,3.134744 -5.13839,4.362787 -2.61768,1.195727 -6.8512,1.195727 -5.20302,0 -8.2085,-2.973158 -2.97316,-2.973159 -2.97316,-8.467039 0,-5.752416 4.0073,-8.467039 4.03962,-2.74694 12.15117,-3.037792 l 6.26949,-0.193902 v -1.58353 q 0,-5.49388 -5.62315,-5.49388 -4.33047,0 -10.17983,2.617672 l -3.26402,-6.65729 q 6.23717,-3.264011 13.83166,-3.264011 7.27131,0 11.14934,3.16706 3.87803,3.167061 3.87803,9.630449 v 24.076121 z m -2.90852,-16.740175 -3.8134,0.129267 q -4.29815,0.129268 -6.39875,1.551214 -2.1006,1.421945 -2.1006,4.33047 0,4.168885 4.7829,4.168885 3.4256,0 5.46157,-1.971333 2.06828,-1.971334 2.06828,-5.235345 z"
     style="font-style:normal;font-variant:normal;font-weight:bold;font-stretch:normal;font-size:66.1851px;line-height:1.25;font-family:'Open Sans';-inkscape-font-specification:'Open Sans Bold';fill:#ffffff;fill-opacity:1;stroke:none;stroke-width:3.19602"
     id="path2548" /><path
     d="m 257.11488,47.057664 -11.6341,-17.677367 h 11.18166 l 7.01278,11.504831 7.07741,-11.504831 h 11.18166 l -11.76337,17.677367 12.31276,18.452973 H 271.2697 l -7.59448,-12.377388 -7.6268,12.377388 h -11.18166 z"
     style="font-style:normal;font-variant:normal;font-weight:bold;font-stretch:normal;font-size:66.1851px;line-height:1.25;font-family:'Open Sans';-inkscape-font-specification:'Open Sans Bold';fill:#ffffff;fill-opacity:1;stroke:none;stroke-width:3.19602"
     id="path2550" /><path
     d="m 282.80685,29.380297 h 10.79386 l 6.81887,20.327356 q 0.87256,2.649989 1.19573,6.269487 h 0.1939 q 0.35548,-3.328645 1.38963,-6.269487 l 6.6896,-20.327356 h 10.56764 L 305.17017,70.13196 q -2.1006,5.655465 -6.01095,8.467039 -3.87803,2.811574 -9.08106,2.811574 -2.55304,0 -5.00913,-0.549388 v -7.8207 q 1.77743,0.42012 3.87804,0.42012 2.61767,0 4.55668,-1.615847 1.97134,-1.58353 3.07011,-4.815224 l 0.58171,-1.777432 z"
     style="font-style:normal;font-variant:normal;font-weight:bold;font-stretch:normal;font-size:66.1851px;line-height:1.25;font-family:'Open Sans';-inkscape-font-specification:'Open Sans Bold';fill:#ffffff;fill-opacity:1;stroke:none;stroke-width:3.19602"
     id="path2552" /><path
     d="m 365.60286,41.434516 q 0,11.666416 -6.65729,17.871269 -6.62497,6.204852 -19.16395,6.204852 H 326.40241 V 18.263269 h 14.83348 q 11.56946,0 17.96822,6.107902 6.39875,6.107902 6.39875,17.063345 z m -10.40605,0.258535 q 0,-15.221279 -13.44385,-15.221279 h -5.3323 V 57.2375 h 4.29816 q 14.47799,0 14.47799,-15.544449 z"
     style="font-style:normal;font-variant:normal;font-weight:bold;font-stretch:normal;font-size:66.1851px;line-height:1.25;font-family:'Open Sans';-inkscape-font-specification:'Open Sans Bold';fill:#ffffff;fill-opacity:1;stroke:none;stroke-width:3.19602"
     id="path2554" /><path
     d="m 403.28441,52.389959 q 0,6.398755 -4.62132,10.082886 -4.58901,3.684131 -12.79751,3.684131 -7.56217,0 -13.37922,-2.843891 v -9.307279 q 4.78291,2.132918 8.07924,3.005476 3.32864,0.872557 6.07558,0.872557 3.29633,0 5.04145,-1.260361 1.77743,-1.26036 1.77743,-3.748765 0,-1.389628 -0.77561,-2.456087 -0.77561,-1.098776 -2.2945,-2.100602 -1.48658,-1.001825 -6.1079,-3.199377 -4.33047,-2.035967 -6.49571,-3.91035 -2.16523,-1.874382 -3.45791,-4.362787 -1.29268,-2.488404 -1.29268,-5.817049 0,-6.269487 4.23352,-9.856668 4.26584,-3.58718 11.76337,-3.58718 3.68413,0 7.01277,0.872557 3.36097,0.872558 7.01278,2.456088 l -3.23169,7.788383 q -3.78109,-1.551213 -6.26949,-2.165235 -2.45609,-0.614022 -4.84754,-0.614022 -2.84389,0 -4.36279,1.324994 -1.5189,1.324995 -1.5189,3.457913 0,1.324995 0.61403,2.32682 0.61402,0.969508 1.93901,1.9067 1.35731,0.904874 6.36644,3.296328 6.62497,3.16706 9.08106,6.366437 2.45609,3.16706 2.45609,7.788383 z"
     style="font-style:normal;font-variant:normal;font-weight:bold;font-stretch:normal;font-size:66.1851px;line-height:1.25;font-family:'Open Sans';-inkscape-font-specification:'Open Sans Bold';fill:#ffffff;fill-opacity:1;stroke:none;stroke-width:3.19602"
     id="path2556" /><path
     d="M 411.84841,65.510637 V 18.263269 h 10.01825 V 57.2375 h 19.16395 v 8.273137 z"
     style="font-style:normal;font-variant:normal;font-weight:bold;font-stretch:normal;font-size:66.1851px;line-height:1.25;font-family:'Open Sans';-inkscape-font-specification:'Open Sans Bold';fill:#ffffff;fill-opacity:1;stroke:none;stroke-width:3.19602"
     id="path2558" /><path
     d="m 459.25735,39.236964 h 3.23169 q 4.75059,0 7.01278,-1.58353 2.26218,-1.58353 2.26218,-4.976809 0,-3.360962 -2.32682,-4.782908 -2.2945,-1.421945 -7.14204,-1.421945 h -3.03779 z m 0,8.143869 V 65.510637 H 449.2391 V 18.263269 h 13.76701 q 9.63045,0 14.25177,3.522546 4.62133,3.49023 4.62133,10.632274 0,4.168886 -2.29451,7.432897 -2.2945,3.231694 -6.4957,5.07376 10.66459,15.932252 13.89628,20.585891 H 475.86826 L 464.58964,47.380833 Z"
     style="font-style:normal;font-variant:normal;font-weight:bold;font-stretch:normal;font-size:66.1851px;line-height:1.25;font-family:'Open Sans';-inkscape-font-specification:'Open Sans Bold';fill:#ffffff;fill-opacity:1;stroke:none;stroke-width:3.19602"
     id="path2560" /></svg>
