<?xml version="1.0" encoding="UTF-8" standalone="no"?>
<svg
   xmlns:dc="http://purl.org/dc/elements/1.1/"
   xmlns:cc="http://creativecommons.org/ns#"
   xmlns:rdf="http://www.w3.org/1999/02/22-rdf-syntax-ns#"
   xmlns:svg="http://www.w3.org/2000/svg"
   xmlns="http://www.w3.org/2000/svg"
   xmlns:sodipodi="http://sodipodi.sourceforge.net/DTD/sodipodi-0.dtd"
   xmlns:inkscape="http://www.inkscape.org/namespaces/inkscape"
   height="290"
   width="290"
   fill="#000000"
   version="1.1"
   x="0px"
   y="0px"
   viewBox="0 0 96.666668 96.666672"
   enable-background="new 0 0 100 100"
   xml:space="preserve"
   id="svg1482"
   sodipodi:docname="icon.svg"
   inkscape:version="1.0.1 (3bc2e813f5, 2020-09-07)"
   inkscape:export-filename="/home/oliver/Devel/astrocamweb/static/img/icons/1024x1024.png"
   inkscape:export-xdpi="327.67999"
   inkscape:export-ydpi="327.67999"><metadata
     id="metadata1488"><rdf:RDF><cc:Work
         rdf:about=""><dc:format>image/svg+xml</dc:format><dc:type
           rdf:resource="http://purl.org/dc/dcmitype/StillImage" /><dc:title></dc:title></cc:Work></rdf:RDF></metadata><defs
     id="defs1486" /><sodipodi:namedview
     pagecolor="#ffffff"
     bordercolor="#666666"
     borderopacity="1"
     objecttolerance="10"
     gridtolerance="10"
     guidetolerance="10"
     inkscape:pageopacity="0"
     inkscape:pageshadow="2"
     inkscape:window-width="3840"
     inkscape:window-height="2096"
     id="namedview1484"
     showgrid="false"
     inkscape:zoom="2.42"
     inkscape:cx="124.8185"
     inkscape:cy="165.0271"
     inkscape:window-x="0"
     inkscape:window-y="27"
     inkscape:window-maximized="1"
     inkscape:current-layer="svg1482"
     fit-margin-top="10"
     fit-margin-left="10"
     fit-margin-right="10"
     fit-margin-bottom="10"
     inkscape:document-rotation="0"
     inkscape:pagecheckerboard="true" /><path
     id="path1474"
     style="fill:#ffffff;stroke-width:1"
     d="m 55.039479,12.148762 c -12.332,0 -14.6266,3.462278 -16.3476,7.988275 -0.784,2.06 -1.4905,3.894 -4.7025,5.222 l -0.6699,-2.91146 c -0.119,-0.511 -0.6347,-0.82891 -1.1367,-0.72591 l -14.6048,3.10482 c -0.254,0.055 -0.4763,0.20904 -0.6153,0.42904 -0.139,0.218 -0.1817,0.48433 -0.1217,0.73633 l 0.7858,3.2806 c -4,0.888 -5.6832,1.24049 -6.8542,1.46549 -1.8890002,0.366 -6.3152002,1.22477 -6.5742002,5.50977 -0.081,1.207 -1.9465,29.6401 0.065,37.0111 1.895,6.956 3.0686,10.3001 9.0006002,10.3001 h 70.155 c 8.751,0 9.4775,-9.818 9.7135,-13.043 0.425,-5.685 0.049,-16.9003 0.01,-18.0963 0.082,-1.633 0.4999,-17.5688 -13.7311,-23.72985 -5.101,-2.207 -6.1228,-4.89674 -7.2058,-7.74674 -1.9499,-5.149997 -4.3264,-8.794265 -17.1634,-8.794265 z m 17.6882,21.137365 c 2.929,-0.01 3.8148,0.0937 3.2988,0.38346 -0.1376,0.0772 -1.7343,0.35473 -3.5488,0.61653 -8.3619,1.2065 -13.352,2.735 -20.3516,6.2337 -6.5238,3.261 -11.2032,6.8103 -13.3405,10.1179 -0.9709,1.5026 -1.1653,1.9879 -1.1653,2.9153 0,1.4879 1.1267,2.2175 3.472,2.25 1.205,0.017 1.395,0.056 1.4414,0.2969 0.091,0.4751 -0.7334,1.1568 -1.7982,1.4857 -1.1187,0.3455 -3.2149,0.3923 -4.321,0.096 -0.9552,-0.2556 -1.8318,-1.044 -2.0468,-1.8411 -0.4219,-1.564 0.3336,-3.4755 2.3001,-5.8216 4.7754,-5.6972 14.0072,-11.3501 23.6374,-14.474 5.0854,-1.64962 8.3633,-2.24603 12.4225,-2.25909 z m -1.929,5.55989 c 2.9025,0.01 3.2851,0.04 4.6412,0.4056 2.6704,0.7193 4.3956,1.8675 5.1628,3.4355 0.4974,1.0166 0.645,2.3668 0.3815,3.4955 -0.2151,0.9217 -1.0559,2.8209 -1.4596,3.2975 -0.2569,0.3033 -0.2596,0.3017 -0.1595,-0.077 0.056,-0.2121 0.1388,-0.9524 0.1842,-1.6451 0.1634,-2.4918 -0.8296,-4.1108 -3.25,-5.3002 -2.052,-1.0082 -3.2948,-1.2648 -6.528,-1.3483 -4.1828,-0.108 -7.9385,0.4366 -12.1243,1.7585 -1.909,0.6028 -5.5281,2.3648 -7.4297,3.6172 -2.4939,1.6424 -4.5723,4.2101 -4.5723,5.6484 0,0.7803 -0.3799,1.5397 -0.9062,1.8119 -0.5547,0.2868 -0.4687,0.2827 -0.9453,0.042 v 6e-4 c -0.8038,-0.4055 -0.9245,-1.9295 -0.2637,-3.3352 0.411,-0.8743 1.9243,-2.4858 3.3828,-3.6023 3.8999,-2.9853 10.047,-5.8523 15.2559,-7.1152 3.8747,-0.9395 5.123,-1.0972 8.6302,-1.0892 z m -28.0515,0.9661 c 0.01,0.01 0,0.028 -0.035,0.057 -0.1273,0.1278 -1.759,1.4466 -3.6263,2.931 -6.6578,5.2928 -8.2447,6.9745 -10.0267,10.6237 -1.0436,2.1373 -1.3163,3.3735 -1.0286,4.6589 0.487,2.1762 2.3241,3.2216 5.6543,3.2168 2.9718,0 5.3099,-0.634 8.373,-2.2552 2.2106,-1.17 3.8952,-1.5722 3.8952,-0.9297 0,0.2163 -1.9823,1.6607 -3.2409,2.3613 -2.5408,1.4144 -6.1913,2.5245 -9.2558,2.8151 -1.7417,0.1652 -1.8563,0.1656 -3.4297,0 v 6e-4 c -1.9513,-0.1991 -4.3834,-1.7839 -5.0749,-3.3066 -0.4278,-0.942 -0.3932,-2.805 0.077,-4.1367 0.815,-2.3091 2.5203,-4.7473 5.1673,-7.39 2.1089,-2.1054 4.0007,-3.6315 6.7422,-5.4388 1.8014,-1.1875 5.717,-3.3401 5.8086,-3.2122 z m 21.392,4.8809 c 3.0779,-0.026 5.5763,1.037 6.5703,2.8633 0.5806,1.0669 0.7266,3.0198 0.3281,4.3906 -0.3867,1.3302 -1.4618,3.3771 -2.5566,4.8672 -1.0826,1.4732 -4.6106,5.0548 -6.2468,6.3418 -3.2017,2.5184 -7.01,4.8925 -10.5286,6.5645 -2.0122,0.9561 -2.415,1.1169 -2.1179,0.8437 0.081,-0.074 1.6745,-1.1966 3.5417,-2.4941 5.8653,-4.076 8.586,-6.285 10.7331,-8.7136 2.6837,-3.0356 4.1595,-5.7667 4.4036,-8.1491 0.084,-0.8158 0.044,-1.1091 -0.2344,-1.7402 -0.7402,-1.6772 -2.0305,-2.4556 -4.5924,-2.7708 -2.296,-0.2825 -4.3188,-2e-4 -6.9147,0.9635 -1.3468,0.5001 -3.6454,1.6372 -4.5143,2.2337 -0.932,0.6398 -1.8857,1.0456 -2.4688,1.0495 -0.7639,0.01 -0.6202,-0.3095 0.5404,-1.1849 4.0314,-3.0406 7.6069,-4.4443 12.705,-4.987 0.4607,-0.049 0.9126,-0.074 1.3523,-0.078 z m -5.5092,5.6367 c 1.4397,10e-4 2.1628,0.2037 2.8347,0.7936 2.5735,2.2596 -1.0953,7.8413 -8.6953,13.2299 -7.6174,5.4008 -17.0564,9.3336 -25.4108,10.5872 -1.5489,0.2324 -5.3664,0.2869 -6.4043,0.091 -0.7459,-0.1407 -0.5658,-0.1886 3.5494,-0.9454 7.6027,-1.398 10.4377,-2.1782 15.155,-4.1705 4.95,-2.0906 10.7841,-5.4114 13.5482,-7.7116 2.974,-2.475 4.7538,-4.5336 5.5664,-6.4382 0.5279,-1.2375 0.5703,-2.0038 0.1406,-2.5501 -0.5224,-0.6642 -1.1923,-0.7826 -3.8112,-0.6745 -2.2177,0.091 -2.3594,0.08 -2.3594,-0.1849 0,-0.4272 0.4246,-0.7152 1.6979,-1.153 1.8692,-0.6426 2.9804,-0.8746 4.1888,-0.8737 z m -5.7793,4.3203 c 0.4942,-3e-4 0.704,0.081 0.8874,0.3425 0.5959,0.8507 -0.062,2.1803 -2.0462,4.1354 -2.0939,2.0634 -4.0471,3.4782 -7.2813,5.2734 -4.2913,2.3821 -10.7268,4.4384 -16.1158,5.1491 -1.8083,0.2385 -5.161,0.2669 -6.5997,0.056 -3.1384,-0.4602 -5.4903,-1.8535 -6.2975,-3.7298 -0.2906,-0.6755 -0.3313,-0.9922 -0.2708,-2.1139 0.063,-1.1642 0.4918,-2.7725 0.6875,-2.5769 0.037,0.037 0.167,0.4938 0.2884,1.0144 0.7191,3.0823 2.8841,4.5805 7.7161,5.3405 4.7807,0.7518 11.7937,-0.5101 17.3731,-3.1263 1.5694,-0.7359 4.9223,-2.7341 6.3476,-3.7832 1.401,-1.0313 1.9593,-1.7521 2.8731,-3.709 0.8679,-1.8586 1.3103,-2.2711 2.4381,-2.2722 z" /></svg>
